<svg xmlns="http://www.w3.org/2000/svg" viewBox="0 0 480 320" preserveAspectRatio="xMidYMid slice">
  <defs>
    <linearGradient id="g" x1="0" y1="0" x2="0" y2="1">
      <stop offset="0" stop-color="#4a5d8a"/>
      <stop offset="1" stop-color="#2d3d54"/>
    </linearGradient>
  </defs>
  <!-- Sky gradient background -->
  <rect width="480" height="320" fill="url(#g)"/>
  
  <!-- Distant mountain silhouettes -->
  <polygon points="0,220 80,180 140,200 200,170 260,195 320,165 380,190 440,175 480,205 480,320 0,320" 
           fill="#1c2638" opacity="0.6"/>
  <polygon points="0,250 60,230 120,245 180,220 240,235 300,210 360,225 420,215 480,235 480,320 0,320"
           fill="#1c2638" opacity="0.85"/>
  
  <!-- Sun -->
  <circle cx="380" cy="90" r="40" fill="#f5cf80" opacity="0.85"/>
  <circle cx="380" cy="90" r="32" fill="#fff" opacity="0.4"/>
  
  <!-- Text -->
  <text x="240" y="155" text-anchor="middle" font-family="Georgia, serif" font-size="32" font-weight="700" fill="#fff">Westbrook Village</text>
  <text x="240" y="183" text-anchor="middle" font-family="sans-serif" font-size="11" letter-spacing="3" fill="#fff" opacity="0.85">PEORIA · 40+ COMMUNITY</text>
</svg>